<mxfile host="app.diagrams.net" modified="2023-09-07T14:26:10.756Z" agent="Mozilla/5.0 (Macintosh; Intel Mac OS X 10_15_7) AppleWebKit/537.36 (KHTML, like Gecko) Chrome/116.0.0.0 Safari/537.36" etag="4kCsrJhvtFBXL4gY3sua" version="21.7.2" type="github">
  <diagram name="Page-1" id="oyj1Ty-wdemDBqZgaB3F">
    <mxGraphModel dx="1434" dy="797" grid="0" gridSize="10" guides="1" tooltips="1" connect="1" arrows="1" fold="1" page="1" pageScale="1" pageWidth="827" pageHeight="1169" background="#FFFDF2" math="0" shadow="0">
      <root>
        <mxCell id="0" />
        <mxCell id="1" parent="0" />
        <mxCell id="XVvD9bJBCbUcLB4PEuXP-2" style="edgeStyle=orthogonalEdgeStyle;rounded=0;orthogonalLoop=1;jettySize=auto;html=1;exitX=1;exitY=0.5;exitDx=0;exitDy=0;labelBackgroundColor=none;fontColor=default;sketch=1;curveFitting=1;jiggle=2;" parent="1" edge="1">
          <mxGeometry relative="1" as="geometry">
            <mxPoint x="373" y="265" as="targetPoint" />
            <mxPoint x="258" y="265" as="sourcePoint" />
          </mxGeometry>
        </mxCell>
        <mxCell id="XVvD9bJBCbUcLB4PEuXP-3" value="No" style="text;html=1;align=center;verticalAlign=middle;resizable=0;points=[];autosize=1;strokeColor=none;fillColor=none;rounded=0;labelBackgroundColor=none;sketch=1;curveFitting=1;jiggle=2;" parent="1" vertex="1">
          <mxGeometry x="284" y="242" width="40" height="30" as="geometry" />
        </mxCell>
        <mxCell id="XVvD9bJBCbUcLB4PEuXP-5" value="Quit Game" style="whiteSpace=wrap;html=1;rounded=0;labelBackgroundColor=none;sketch=1;curveFitting=1;jiggle=2;" parent="1" vertex="1">
          <mxGeometry x="373" y="235" width="120" height="60" as="geometry" />
        </mxCell>
        <mxCell id="XVvD9bJBCbUcLB4PEuXP-9" style="edgeStyle=orthogonalEdgeStyle;rounded=0;orthogonalLoop=1;jettySize=auto;html=1;exitX=0.5;exitY=1;exitDx=0;exitDy=0;entryX=0.5;entryY=0;entryDx=0;entryDy=0;labelBackgroundColor=none;fontColor=default;sketch=1;curveFitting=1;jiggle=2;" parent="1" source="XVvD9bJBCbUcLB4PEuXP-8" target="XVvD9bJBCbUcLB4PEuXP-11" edge="1">
          <mxGeometry relative="1" as="geometry">
            <mxPoint x="197.75862068965512" y="375" as="targetPoint" />
          </mxGeometry>
        </mxCell>
        <mxCell id="XVvD9bJBCbUcLB4PEuXP-8" value="Play Black Jack?" style="ellipse;whiteSpace=wrap;html=1;rounded=0;labelBackgroundColor=none;sketch=1;curveFitting=1;jiggle=2;" parent="1" vertex="1">
          <mxGeometry x="138" y="225" width="120" height="80" as="geometry" />
        </mxCell>
        <mxCell id="XVvD9bJBCbUcLB4PEuXP-10" value="Yes" style="text;html=1;align=center;verticalAlign=middle;resizable=0;points=[];autosize=1;strokeColor=none;fillColor=none;rounded=0;labelBackgroundColor=none;sketch=1;curveFitting=1;jiggle=2;" parent="1" vertex="1">
          <mxGeometry x="192" y="319" width="40" height="30" as="geometry" />
        </mxCell>
        <mxCell id="XVvD9bJBCbUcLB4PEuXP-13" style="edgeStyle=orthogonalEdgeStyle;rounded=0;orthogonalLoop=1;jettySize=auto;html=1;entryX=0.5;entryY=0;entryDx=0;entryDy=0;labelBackgroundColor=none;fontColor=default;sketch=1;curveFitting=1;jiggle=2;" parent="1" source="XVvD9bJBCbUcLB4PEuXP-11" target="XVvD9bJBCbUcLB4PEuXP-12" edge="1">
          <mxGeometry relative="1" as="geometry" />
        </mxCell>
        <mxCell id="XVvD9bJBCbUcLB4PEuXP-11" value="Clear screen, display logo and deal user two cards. Deal computer one card and show to user" style="whiteSpace=wrap;html=1;rounded=0;labelBackgroundColor=none;sketch=1;curveFitting=1;jiggle=2;" parent="1" vertex="1">
          <mxGeometry x="123" y="375" width="150" height="70" as="geometry" />
        </mxCell>
        <mxCell id="XVvD9bJBCbUcLB4PEuXP-39" style="edgeStyle=orthogonalEdgeStyle;rounded=0;orthogonalLoop=1;jettySize=auto;html=1;exitX=1;exitY=0.5;exitDx=0;exitDy=0;entryX=0;entryY=0.5;entryDx=0;entryDy=0;labelBackgroundColor=none;fontColor=default;sketch=1;curveFitting=1;jiggle=2;" parent="1" source="XVvD9bJBCbUcLB4PEuXP-12" target="XVvD9bJBCbUcLB4PEuXP-16" edge="1">
          <mxGeometry relative="1" as="geometry" />
        </mxCell>
        <mxCell id="O2sD-Nn5E-DSC6s_zz4a-1" style="edgeStyle=orthogonalEdgeStyle;rounded=0;orthogonalLoop=1;jettySize=auto;html=1;exitX=0.5;exitY=1;exitDx=0;exitDy=0;labelBackgroundColor=none;fontColor=default;sketch=1;curveFitting=1;jiggle=2;" edge="1" parent="1" source="XVvD9bJBCbUcLB4PEuXP-12">
          <mxGeometry relative="1" as="geometry">
            <mxPoint x="198" y="675" as="targetPoint" />
          </mxGeometry>
        </mxCell>
        <mxCell id="XVvD9bJBCbUcLB4PEuXP-12" value="Does player want another card?" style="ellipse;whiteSpace=wrap;html=1;rounded=0;labelBackgroundColor=none;sketch=1;curveFitting=1;jiggle=2;" parent="1" vertex="1">
          <mxGeometry x="138" y="540" width="120" height="80" as="geometry" />
        </mxCell>
        <mxCell id="XVvD9bJBCbUcLB4PEuXP-15" value="No" style="text;html=1;align=center;verticalAlign=middle;resizable=0;points=[];autosize=1;strokeColor=none;fillColor=none;rounded=0;labelBackgroundColor=none;sketch=1;curveFitting=1;jiggle=2;" parent="1" vertex="1">
          <mxGeometry x="263" y="555" width="40" height="30" as="geometry" />
        </mxCell>
        <mxCell id="XVvD9bJBCbUcLB4PEuXP-40" style="edgeStyle=orthogonalEdgeStyle;rounded=0;orthogonalLoop=1;jettySize=auto;html=1;exitX=1;exitY=0.25;exitDx=0;exitDy=0;entryX=0;entryY=0.5;entryDx=0;entryDy=0;labelBackgroundColor=none;fontColor=default;sketch=1;curveFitting=1;jiggle=2;" parent="1" source="XVvD9bJBCbUcLB4PEuXP-16" target="XVvD9bJBCbUcLB4PEuXP-25" edge="1">
          <mxGeometry relative="1" as="geometry" />
        </mxCell>
        <mxCell id="XVvD9bJBCbUcLB4PEuXP-41" style="edgeStyle=orthogonalEdgeStyle;rounded=0;orthogonalLoop=1;jettySize=auto;html=1;exitX=1;exitY=0.75;exitDx=0;exitDy=0;entryX=0;entryY=0.5;entryDx=0;entryDy=0;labelBackgroundColor=none;fontColor=default;sketch=1;curveFitting=1;jiggle=2;" parent="1" source="XVvD9bJBCbUcLB4PEuXP-16" target="XVvD9bJBCbUcLB4PEuXP-23" edge="1">
          <mxGeometry relative="1" as="geometry">
            <Array as="points">
              <mxPoint x="444" y="595" />
              <mxPoint x="474" y="595" />
              <mxPoint x="474" y="660" />
            </Array>
          </mxGeometry>
        </mxCell>
        <mxCell id="XVvD9bJBCbUcLB4PEuXP-42" style="edgeStyle=orthogonalEdgeStyle;rounded=0;orthogonalLoop=1;jettySize=auto;html=1;exitX=1;exitY=0.5;exitDx=0;exitDy=0;entryX=0;entryY=0.5;entryDx=0;entryDy=0;labelBackgroundColor=none;fontColor=default;sketch=1;curveFitting=1;jiggle=2;" parent="1" source="XVvD9bJBCbUcLB4PEuXP-16" target="XVvD9bJBCbUcLB4PEuXP-24" edge="1">
          <mxGeometry relative="1" as="geometry" />
        </mxCell>
        <mxCell id="XVvD9bJBCbUcLB4PEuXP-16" value="Present users cards, CPU must keep adding cards if &amp;lt; 17,&lt;br&gt;present CPU cards." style="whiteSpace=wrap;html=1;rounded=0;labelBackgroundColor=none;sketch=1;curveFitting=1;jiggle=2;" parent="1" vertex="1">
          <mxGeometry x="324" y="540" width="120" height="80" as="geometry" />
        </mxCell>
        <mxCell id="XVvD9bJBCbUcLB4PEuXP-45" style="edgeStyle=orthogonalEdgeStyle;rounded=0;orthogonalLoop=1;jettySize=auto;html=1;exitX=0;exitY=0.5;exitDx=0;exitDy=0;entryX=1.007;entryY=0.433;entryDx=0;entryDy=0;entryPerimeter=0;labelBackgroundColor=none;fontColor=default;sketch=1;curveFitting=1;jiggle=2;" parent="1" source="XVvD9bJBCbUcLB4PEuXP-17" target="XVvD9bJBCbUcLB4PEuXP-11" edge="1">
          <mxGeometry relative="1" as="geometry" />
        </mxCell>
        <mxCell id="XVvD9bJBCbUcLB4PEuXP-47" style="edgeStyle=orthogonalEdgeStyle;rounded=0;orthogonalLoop=1;jettySize=auto;html=1;exitX=0.5;exitY=0;exitDx=0;exitDy=0;entryX=1;entryY=0.5;entryDx=0;entryDy=0;labelBackgroundColor=none;fontColor=default;sketch=1;curveFitting=1;jiggle=2;" parent="1" source="XVvD9bJBCbUcLB4PEuXP-17" target="XVvD9bJBCbUcLB4PEuXP-5" edge="1">
          <mxGeometry relative="1" as="geometry">
            <mxPoint x="552.9655172413793" y="265" as="targetPoint" />
          </mxGeometry>
        </mxCell>
        <mxCell id="XVvD9bJBCbUcLB4PEuXP-17" value="Play again?" style="ellipse;whiteSpace=wrap;html=1;rounded=0;labelBackgroundColor=none;sketch=1;curveFitting=1;jiggle=2;" parent="1" vertex="1">
          <mxGeometry x="493" y="365" width="120" height="80" as="geometry" />
        </mxCell>
        <mxCell id="XVvD9bJBCbUcLB4PEuXP-34" style="edgeStyle=orthogonalEdgeStyle;rounded=0;orthogonalLoop=1;jettySize=auto;html=1;exitX=1;exitY=0.5;exitDx=0;exitDy=0;entryX=0;entryY=0.5;entryDx=0;entryDy=0;labelBackgroundColor=none;fontColor=default;sketch=1;curveFitting=1;jiggle=2;" parent="1" source="XVvD9bJBCbUcLB4PEuXP-23" target="XVvD9bJBCbUcLB4PEuXP-32" edge="1">
          <mxGeometry relative="1" as="geometry" />
        </mxCell>
        <mxCell id="XVvD9bJBCbUcLB4PEuXP-23" value="&lt;span style=&quot;color: rgb(0, 0, 0); font-family: Helvetica; font-size: 12px; font-style: normal; font-variant-ligatures: normal; font-variant-caps: normal; font-weight: 400; letter-spacing: normal; orphans: 2; text-align: center; text-indent: 0px; text-transform: none; widows: 2; word-spacing: 0px; -webkit-text-stroke-width: 0px; text-decoration-thickness: initial; text-decoration-style: initial; text-decoration-color: initial; float: none; display: inline !important;&quot;&gt;cards &amp;gt; 21&lt;/span&gt;&lt;br style=&quot;border-color: var(--border-color); color: rgb(0, 0, 0); font-family: Helvetica; font-size: 12px; font-style: normal; font-variant-ligatures: normal; font-variant-caps: normal; font-weight: 400; letter-spacing: normal; orphans: 2; text-align: center; text-indent: 0px; text-transform: none; widows: 2; word-spacing: 0px; -webkit-text-stroke-width: 0px; text-decoration-thickness: initial; text-decoration-style: initial; text-decoration-color: initial;&quot;&gt;&lt;span style=&quot;color: rgb(0, 0, 0); font-family: Helvetica; font-size: 12px; font-style: normal; font-variant-ligatures: normal; font-variant-caps: normal; font-weight: 400; letter-spacing: normal; orphans: 2; text-align: center; text-indent: 0px; text-transform: none; widows: 2; word-spacing: 0px; -webkit-text-stroke-width: 0px; text-decoration-thickness: initial; text-decoration-style: initial; text-decoration-color: initial; float: none; display: inline !important;&quot;&gt;or user total &amp;lt; cpu total&lt;/span&gt;" style="shape=hexagon;perimeter=hexagonPerimeter2;whiteSpace=wrap;html=1;fixedSize=1;rounded=0;labelBackgroundColor=none;sketch=1;curveFitting=1;jiggle=2;" parent="1" vertex="1">
          <mxGeometry x="503" y="625" width="110" height="70" as="geometry" />
        </mxCell>
        <mxCell id="XVvD9bJBCbUcLB4PEuXP-33" style="edgeStyle=orthogonalEdgeStyle;rounded=0;orthogonalLoop=1;jettySize=auto;html=1;exitX=1;exitY=0.5;exitDx=0;exitDy=0;entryX=0;entryY=0.5;entryDx=0;entryDy=0;labelBackgroundColor=none;fontColor=default;sketch=1;curveFitting=1;jiggle=2;" parent="1" source="XVvD9bJBCbUcLB4PEuXP-24" target="XVvD9bJBCbUcLB4PEuXP-31" edge="1">
          <mxGeometry relative="1" as="geometry" />
        </mxCell>
        <mxCell id="XVvD9bJBCbUcLB4PEuXP-24" value="&lt;span style=&quot;color: rgb(0, 0, 0); font-family: Helvetica; font-size: 12px; font-style: normal; font-variant-ligatures: normal; font-variant-caps: normal; font-weight: 400; letter-spacing: normal; orphans: 2; text-align: center; text-indent: 0px; text-transform: none; widows: 2; word-spacing: 0px; -webkit-text-stroke-width: 0px; text-decoration-thickness: initial; text-decoration-style: initial; text-decoration-color: initial; float: none; display: inline !important;&quot;&gt;user total = cpu total&lt;/span&gt;" style="shape=hexagon;perimeter=hexagonPerimeter2;whiteSpace=wrap;html=1;fixedSize=1;rounded=0;labelBackgroundColor=none;sketch=1;curveFitting=1;jiggle=2;" parent="1" vertex="1">
          <mxGeometry x="503" y="545" width="110" height="70" as="geometry" />
        </mxCell>
        <mxCell id="XVvD9bJBCbUcLB4PEuXP-29" style="edgeStyle=orthogonalEdgeStyle;rounded=0;orthogonalLoop=1;jettySize=auto;html=1;exitX=1;exitY=0.5;exitDx=0;exitDy=0;labelBackgroundColor=none;fontColor=default;sketch=1;curveFitting=1;jiggle=2;" parent="1" source="XVvD9bJBCbUcLB4PEuXP-25" target="XVvD9bJBCbUcLB4PEuXP-30" edge="1">
          <mxGeometry relative="1" as="geometry">
            <mxPoint x="642.9999999999998" y="500.1724137931035" as="targetPoint" />
          </mxGeometry>
        </mxCell>
        <mxCell id="XVvD9bJBCbUcLB4PEuXP-25" value="&lt;span style=&quot;color: rgb(0, 0, 0); font-family: Helvetica; font-size: 12px; font-style: normal; font-variant-ligatures: normal; font-variant-caps: normal; font-weight: 400; letter-spacing: normal; orphans: 2; text-align: center; text-indent: 0px; text-transform: none; widows: 2; word-spacing: 0px; -webkit-text-stroke-width: 0px; text-decoration-thickness: initial; text-decoration-style: initial; text-decoration-color: initial; float: none; display: inline !important;&quot;&gt;cards &amp;lt;= 21 AND user total &amp;gt; cpu total&lt;/span&gt;" style="shape=hexagon;perimeter=hexagonPerimeter2;whiteSpace=wrap;html=1;fixedSize=1;rounded=0;labelBackgroundColor=none;sketch=1;curveFitting=1;jiggle=2;" parent="1" vertex="1">
          <mxGeometry x="503" y="465" width="110" height="70" as="geometry" />
        </mxCell>
        <mxCell id="XVvD9bJBCbUcLB4PEuXP-35" style="edgeStyle=orthogonalEdgeStyle;rounded=0;orthogonalLoop=1;jettySize=auto;html=1;exitX=1;exitY=0.5;exitDx=0;exitDy=0;entryX=1;entryY=0.5;entryDx=0;entryDy=0;labelBackgroundColor=none;fontColor=default;sketch=1;curveFitting=1;jiggle=2;" parent="1" source="XVvD9bJBCbUcLB4PEuXP-30" target="XVvD9bJBCbUcLB4PEuXP-17" edge="1">
          <mxGeometry relative="1" as="geometry">
            <Array as="points">
              <mxPoint x="773" y="500" />
              <mxPoint x="773" y="405" />
            </Array>
          </mxGeometry>
        </mxCell>
        <mxCell id="XVvD9bJBCbUcLB4PEuXP-30" value="Win" style="rounded=0;whiteSpace=wrap;html=1;labelBackgroundColor=none;sketch=1;curveFitting=1;jiggle=2;" parent="1" vertex="1">
          <mxGeometry x="653" y="487.41" width="60" height="25.17" as="geometry" />
        </mxCell>
        <mxCell id="XVvD9bJBCbUcLB4PEuXP-36" style="edgeStyle=orthogonalEdgeStyle;rounded=0;orthogonalLoop=1;jettySize=auto;html=1;exitX=1;exitY=0.5;exitDx=0;exitDy=0;entryX=1;entryY=0.5;entryDx=0;entryDy=0;labelBackgroundColor=none;fontColor=default;sketch=1;curveFitting=1;jiggle=2;" parent="1" source="XVvD9bJBCbUcLB4PEuXP-31" edge="1" target="XVvD9bJBCbUcLB4PEuXP-17">
          <mxGeometry relative="1" as="geometry">
            <mxPoint x="772.9999999999998" y="495" as="targetPoint" />
            <Array as="points">
              <mxPoint x="773" y="580" />
              <mxPoint x="773" y="405" />
            </Array>
          </mxGeometry>
        </mxCell>
        <mxCell id="XVvD9bJBCbUcLB4PEuXP-31" value="Draw" style="rounded=0;whiteSpace=wrap;html=1;labelBackgroundColor=none;sketch=1;curveFitting=1;jiggle=2;" parent="1" vertex="1">
          <mxGeometry x="653" y="567.4100000000001" width="60" height="25.17" as="geometry" />
        </mxCell>
        <mxCell id="XVvD9bJBCbUcLB4PEuXP-37" style="edgeStyle=orthogonalEdgeStyle;rounded=0;orthogonalLoop=1;jettySize=auto;html=1;exitX=1;exitY=0.5;exitDx=0;exitDy=0;entryX=1;entryY=0.5;entryDx=0;entryDy=0;labelBackgroundColor=none;fontColor=default;sketch=1;curveFitting=1;jiggle=2;" parent="1" source="XVvD9bJBCbUcLB4PEuXP-32" edge="1" target="XVvD9bJBCbUcLB4PEuXP-17">
          <mxGeometry relative="1" as="geometry">
            <mxPoint x="773" y="400" as="targetPoint" />
            <Array as="points">
              <mxPoint x="773" y="660" />
              <mxPoint x="773" y="405" />
            </Array>
          </mxGeometry>
        </mxCell>
        <mxCell id="XVvD9bJBCbUcLB4PEuXP-32" value="Lose" style="rounded=0;whiteSpace=wrap;html=1;labelBackgroundColor=none;sketch=1;curveFitting=1;jiggle=2;" parent="1" vertex="1">
          <mxGeometry x="653" y="647.4100000000001" width="60" height="25.17" as="geometry" />
        </mxCell>
        <mxCell id="XVvD9bJBCbUcLB4PEuXP-46" value="Yes" style="text;html=1;align=center;verticalAlign=middle;resizable=0;points=[];autosize=1;strokeColor=none;fillColor=none;rounded=0;labelBackgroundColor=none;sketch=1;curveFitting=1;jiggle=2;" parent="1" vertex="1">
          <mxGeometry x="436" y="381" width="40" height="30" as="geometry" />
        </mxCell>
        <mxCell id="XVvD9bJBCbUcLB4PEuXP-48" value="No" style="text;html=1;align=center;verticalAlign=middle;resizable=0;points=[];autosize=1;strokeColor=none;fillColor=none;rounded=0;labelBackgroundColor=none;sketch=1;curveFitting=1;jiggle=2;" parent="1" vertex="1">
          <mxGeometry x="544" y="305" width="40" height="30" as="geometry" />
        </mxCell>
        <mxCell id="O2sD-Nn5E-DSC6s_zz4a-2" value="Yes" style="text;html=1;align=center;verticalAlign=middle;resizable=0;points=[];autosize=1;strokeColor=none;fillColor=none;rounded=0;labelBackgroundColor=none;sketch=1;curveFitting=1;jiggle=2;" vertex="1" parent="1">
          <mxGeometry x="195" y="633" width="40" height="30" as="geometry" />
        </mxCell>
        <mxCell id="O2sD-Nn5E-DSC6s_zz4a-6" style="edgeStyle=orthogonalEdgeStyle;rounded=0;orthogonalLoop=1;jettySize=auto;html=1;exitX=0;exitY=0.5;exitDx=0;exitDy=0;entryX=0;entryY=0.413;entryDx=0;entryDy=0;entryPerimeter=0;labelBackgroundColor=none;fontColor=default;sketch=1;curveFitting=1;jiggle=2;" edge="1" parent="1" source="O2sD-Nn5E-DSC6s_zz4a-5" target="XVvD9bJBCbUcLB4PEuXP-12">
          <mxGeometry relative="1" as="geometry">
            <Array as="points">
              <mxPoint x="93" y="708" />
              <mxPoint x="93" y="573" />
            </Array>
          </mxGeometry>
        </mxCell>
        <mxCell id="O2sD-Nn5E-DSC6s_zz4a-9" style="edgeStyle=orthogonalEdgeStyle;rounded=0;orthogonalLoop=1;jettySize=auto;html=1;exitX=0.5;exitY=1;exitDx=0;exitDy=0;labelBackgroundColor=none;fontColor=default;sketch=1;curveFitting=1;jiggle=2;" edge="1" parent="1" source="O2sD-Nn5E-DSC6s_zz4a-5">
          <mxGeometry relative="1" as="geometry">
            <mxPoint x="198" y="775" as="targetPoint" />
            <Array as="points">
              <mxPoint x="198" y="775" />
            </Array>
          </mxGeometry>
        </mxCell>
        <mxCell id="O2sD-Nn5E-DSC6s_zz4a-12" style="edgeStyle=orthogonalEdgeStyle;rounded=0;orthogonalLoop=1;jettySize=auto;html=1;exitX=1;exitY=0.5;exitDx=0;exitDy=0;entryX=0.5;entryY=1;entryDx=0;entryDy=0;labelBackgroundColor=none;fontColor=default;sketch=1;curveFitting=1;jiggle=2;" edge="1" parent="1" source="O2sD-Nn5E-DSC6s_zz4a-5" target="XVvD9bJBCbUcLB4PEuXP-16">
          <mxGeometry relative="1" as="geometry" />
        </mxCell>
        <mxCell id="O2sD-Nn5E-DSC6s_zz4a-5" value="&lt;span style=&quot;color: rgb(0, 0, 0); font-family: Helvetica; font-size: 12px; font-style: normal; font-variant-ligatures: normal; font-variant-caps: normal; font-weight: 400; letter-spacing: normal; orphans: 2; text-align: center; text-indent: 0px; text-transform: none; widows: 2; word-spacing: 0px; -webkit-text-stroke-width: 0px; text-decoration-thickness: initial; text-decoration-style: initial; text-decoration-color: initial; float: none; display: inline !important;&quot;&gt;is the user_total &amp;lt; 21?&lt;/span&gt;" style="shape=hexagon;perimeter=hexagonPerimeter2;whiteSpace=wrap;html=1;fixedSize=1;rounded=0;labelBackgroundColor=none;sketch=1;curveFitting=1;jiggle=2;" vertex="1" parent="1">
          <mxGeometry x="143" y="672.58" width="110" height="70" as="geometry" />
        </mxCell>
        <mxCell id="O2sD-Nn5E-DSC6s_zz4a-7" value="Yes" style="text;html=1;align=center;verticalAlign=middle;resizable=0;points=[];autosize=1;strokeColor=none;fillColor=none;rounded=0;labelBackgroundColor=none;sketch=1;curveFitting=1;jiggle=2;" vertex="1" parent="1">
          <mxGeometry x="55" y="634" width="40" height="30" as="geometry" />
        </mxCell>
        <mxCell id="O2sD-Nn5E-DSC6s_zz4a-11" style="edgeStyle=orthogonalEdgeStyle;rounded=0;orthogonalLoop=1;jettySize=auto;html=1;exitX=1;exitY=0.5;exitDx=0;exitDy=0;entryX=0.5;entryY=1;entryDx=0;entryDy=0;labelBackgroundColor=none;fontColor=default;sketch=1;curveFitting=1;jiggle=2;" edge="1" parent="1" source="O2sD-Nn5E-DSC6s_zz4a-10" target="XVvD9bJBCbUcLB4PEuXP-16">
          <mxGeometry relative="1" as="geometry">
            <mxPoint x="384" y="718" as="targetPoint" />
          </mxGeometry>
        </mxCell>
        <mxCell id="O2sD-Nn5E-DSC6s_zz4a-14" style="edgeStyle=orthogonalEdgeStyle;rounded=0;orthogonalLoop=1;jettySize=auto;html=1;exitX=0.5;exitY=1;exitDx=0;exitDy=0;entryX=0.5;entryY=0;entryDx=0;entryDy=0;labelBackgroundColor=none;fontColor=default;sketch=1;curveFitting=1;jiggle=2;" edge="1" parent="1" source="O2sD-Nn5E-DSC6s_zz4a-10" target="O2sD-Nn5E-DSC6s_zz4a-13">
          <mxGeometry relative="1" as="geometry" />
        </mxCell>
        <mxCell id="O2sD-Nn5E-DSC6s_zz4a-10" value="&lt;span style=&quot;color: rgb(0, 0, 0); font-family: Helvetica; font-size: 12px; font-style: normal; font-variant-ligatures: normal; font-variant-caps: normal; font-weight: 400; letter-spacing: normal; orphans: 2; text-align: center; text-indent: 0px; text-transform: none; widows: 2; word-spacing: 0px; -webkit-text-stroke-width: 0px; text-decoration-thickness: initial; text-decoration-style: initial; text-decoration-color: initial; float: none; display: inline !important;&quot;&gt;is the user_total = 21?&lt;/span&gt;" style="shape=hexagon;perimeter=hexagonPerimeter2;whiteSpace=wrap;html=1;fixedSize=1;rounded=0;labelBackgroundColor=none;sketch=1;curveFitting=1;jiggle=2;" vertex="1" parent="1">
          <mxGeometry x="143" y="775" width="110" height="70" as="geometry" />
        </mxCell>
        <mxCell id="O2sD-Nn5E-DSC6s_zz4a-15" style="edgeStyle=orthogonalEdgeStyle;rounded=0;orthogonalLoop=1;jettySize=auto;html=1;exitX=1;exitY=0.5;exitDx=0;exitDy=0;entryX=0.5;entryY=1;entryDx=0;entryDy=0;labelBackgroundColor=none;fontColor=default;sketch=1;curveFitting=1;jiggle=2;" edge="1" parent="1" source="O2sD-Nn5E-DSC6s_zz4a-13" target="XVvD9bJBCbUcLB4PEuXP-32">
          <mxGeometry relative="1" as="geometry" />
        </mxCell>
        <mxCell id="O2sD-Nn5E-DSC6s_zz4a-13" value="&lt;span style=&quot;color: rgb(0, 0, 0); font-family: Helvetica; font-size: 12px; font-style: normal; font-variant-ligatures: normal; font-variant-caps: normal; font-weight: 400; letter-spacing: normal; orphans: 2; text-align: center; text-indent: 0px; text-transform: none; widows: 2; word-spacing: 0px; -webkit-text-stroke-width: 0px; text-decoration-thickness: initial; text-decoration-style: initial; text-decoration-color: initial; float: none; display: inline !important;&quot;&gt;is the &lt;/span&gt;&lt;span style=&quot;color: rgb(0, 0, 0); font-family: Helvetica; font-size: 12px; font-style: normal; font-variant-ligatures: normal; font-variant-caps: normal; font-weight: 400; letter-spacing: normal; orphans: 2; text-align: center; text-indent: 0px; text-transform: none; widows: 2; word-spacing: 0px; -webkit-text-stroke-width: 0px; text-decoration-thickness: initial; text-decoration-style: initial; text-decoration-color: initial; float: none; display: inline !important;&quot;&gt;user_total&lt;/span&gt;&lt;span style=&quot;color: rgb(0, 0, 0); font-family: Helvetica; font-size: 12px; font-style: normal; font-variant-ligatures: normal; font-variant-caps: normal; font-weight: 400; letter-spacing: normal; orphans: 2; text-align: center; text-indent: 0px; text-transform: none; widows: 2; word-spacing: 0px; -webkit-text-stroke-width: 0px; text-decoration-thickness: initial; text-decoration-style: initial; text-decoration-color: initial; float: none; display: inline !important;&quot;&gt; &amp;gt; 21?&lt;/span&gt;" style="shape=hexagon;perimeter=hexagonPerimeter2;whiteSpace=wrap;html=1;fixedSize=1;rounded=0;labelBackgroundColor=none;sketch=1;curveFitting=1;jiggle=2;" vertex="1" parent="1">
          <mxGeometry x="143" y="875" width="110" height="70" as="geometry" />
        </mxCell>
        <mxCell id="O2sD-Nn5E-DSC6s_zz4a-16" value="&lt;font style=&quot;font-size: 30px;&quot;&gt;Blackjack Logic Flowchart&lt;/font&gt;" style="text;html=1;align=center;verticalAlign=middle;resizable=0;points=[];autosize=1;strokeColor=none;fillColor=none;fontSize=20;fontFamily=Architects Daughter;" vertex="1" parent="1">
          <mxGeometry x="233.5" y="94" width="400" height="48" as="geometry" />
        </mxCell>
      </root>
    </mxGraphModel>
  </diagram>
</mxfile>
